<svg xmlns="http://www.w3.org/2000/svg" width="212.943" height="105.711" viewBox="0 0 212.943 105.711"><g transform="translate(-26.618 -79.854)"><g transform="translate(26.618 79.854)"><path d="M65.179,21.1V124.149H54.912v-23.2H7L62.9,21.1Z" transform="translate(-7 -20.72)" fill="#dea712"/><path d="M96.326,74.236c0,12.548-1.521,22.435-4.563,30.04s-7.225,13.309-12.548,16.731a30.3,30.3,0,0,1-17.872,5.7,31.576,31.576,0,0,1-17.492-5.324c-4.943-3.8-9.126-9.126-12.168-16.731-2.662-7.225-4.183-17.492-4.183-30.8s1.521-23.576,4.183-30.8A33.866,33.866,0,0,1,43.851,26.7,29.173,29.173,0,0,1,61.343,21a28.372,28.372,0,0,1,17.492,5.7c5.324,3.8,9.506,9.506,12.548,16.731C94.805,51.42,96.326,61.687,96.326,74.236Z" transform="translate(50.452 -21)" fill="#dea712"/><path d="M105.6,21.1V124.149H95.712v-23.2H47.8L103.7,21.1Z" transform="translate(107.344 -20.72)" fill="#dea712"/></g></g></svg>